G04 Layer: TopSolderMaskLayer*
G04 EasyEDA v6.4.32, 2022-06-17 11:56:41*
G04 Gerber Generator version 0.2*
G04 Scale: 100 percent, Rotated: No, Reflected: No *
G04 Dimensions in millimeters *
G04 leading zeros omitted , absolute positions ,4 integer and 5 decimal *
%FSLAX45Y45*%
%MOMM*%

%ADD29C,1.9016*%
%ADD31R,3.6016X1.7016*%
%ADD35C,1.7016*%

%LPD*%
D29*
X2349500Y5133182D02*
G01*
X2349500Y5053182D01*
X2603525Y5132191D02*
G01*
X2603525Y5052192D01*
G36*
X1006855Y3964431D02*
G01*
X1006855Y4115562D01*
X1152144Y4115562D01*
X1152144Y3964431D01*
G37*
G36*
X1006855Y3758437D02*
G01*
X1006855Y3909568D01*
X1152144Y3909568D01*
X1152144Y3758437D01*
G37*
G36*
X3604513Y3717289D02*
G01*
X3604513Y3887470D01*
X3964686Y3887470D01*
X3964686Y3717289D01*
G37*
G36*
X3604513Y4037329D02*
G01*
X3604513Y4207510D01*
X3964686Y4207510D01*
X3964686Y4037329D01*
G37*
G36*
X3033013Y4164329D02*
G01*
X3033013Y4334510D01*
X3393186Y4334510D01*
X3393186Y4164329D01*
G37*
D31*
G01*
X3213100Y3929405D03*
G36*
X1342897Y5065776D02*
G01*
X1342897Y5195823D01*
X1493265Y5195823D01*
X1493265Y5065776D01*
G37*
G36*
X995934Y5065776D02*
G01*
X995934Y5195823D01*
X1146302Y5195823D01*
X1146302Y5065776D01*
G37*
G36*
X4278375Y4869434D02*
G01*
X4278375Y5019802D01*
X4408424Y5019802D01*
X4408424Y4869434D01*
G37*
G36*
X4278375Y5216397D02*
G01*
X4278375Y5366765D01*
X4408424Y5366765D01*
X4408424Y5216397D01*
G37*
G36*
X5233415Y4921757D02*
G01*
X5233415Y5026913D01*
X5358384Y5026913D01*
X5358384Y4921757D01*
G37*
G36*
X5233415Y5260086D02*
G01*
X5233415Y5365242D01*
X5358384Y5365242D01*
X5358384Y5260086D01*
G37*
G36*
X5233415Y5658357D02*
G01*
X5233415Y5763513D01*
X5358384Y5763513D01*
X5358384Y5658357D01*
G37*
G36*
X5233415Y5996686D02*
G01*
X5233415Y6101842D01*
X5358384Y6101842D01*
X5358384Y5996686D01*
G37*
D35*
G01*
X1824101Y4495800D03*
G01*
X2824099Y4495800D03*
G36*
X2526284Y5772404D02*
G01*
X2526284Y5962395D01*
X2906522Y5962395D01*
X2906522Y5772404D01*
G37*
G36*
X2526284Y6280404D02*
G01*
X2526284Y6470395D01*
X2906522Y6470395D01*
X2906522Y6280404D01*
G37*
G36*
X1227328Y5585968D02*
G01*
X1227328Y6656831D01*
X2077465Y6656831D01*
X2077465Y5585968D01*
G37*
G36*
X4609084Y5772404D02*
G01*
X4609084Y5962395D01*
X4989322Y5962395D01*
X4989322Y5772404D01*
G37*
G36*
X4609084Y6280404D02*
G01*
X4609084Y6470395D01*
X4989322Y6470395D01*
X4989322Y6280404D01*
G37*
G36*
X3310127Y5585968D02*
G01*
X3310127Y6656831D01*
X4160265Y6656831D01*
X4160265Y5585968D01*
G37*
G36*
X5247640Y4665471D02*
G01*
X5247640Y4756150D01*
X5344159Y4756150D01*
X5344159Y4665471D01*
G37*
G36*
X5247640Y4514850D02*
G01*
X5247640Y4605528D01*
X5344159Y4605528D01*
X5344159Y4514850D01*
G37*
G36*
X3329940Y5048250D02*
G01*
X3329940Y5138928D01*
X3426459Y5138928D01*
X3426459Y5048250D01*
G37*
G36*
X3329940Y5198871D02*
G01*
X3329940Y5289550D01*
X3426459Y5289550D01*
X3426459Y5198871D01*
G37*
G36*
X4375150Y4536439D02*
G01*
X4375150Y4632960D01*
X4465827Y4632960D01*
X4465827Y4536439D01*
G37*
G36*
X4525772Y4536439D02*
G01*
X4525772Y4632960D01*
X4616450Y4632960D01*
X4616450Y4536439D01*
G37*
G36*
X5124450Y4168139D02*
G01*
X5124450Y4264660D01*
X5215127Y4264660D01*
X5215127Y4168139D01*
G37*
G36*
X5275072Y4168139D02*
G01*
X5275072Y4264660D01*
X5365750Y4264660D01*
X5365750Y4168139D01*
G37*
G36*
X2000504Y4958079D02*
G01*
X2000504Y5228336D01*
X2190495Y5228336D01*
X2190495Y4958079D01*
G37*
M02*
