G04 Layer: TopLayer*
G04 EasyEDA v6.4.32, 2022-06-17 11:56:41*
G04 Gerber Generator version 0.2*
G04 Scale: 100 percent, Rotated: No, Reflected: No *
G04 Dimensions in millimeters *
G04 leading zeros omitted , absolute positions ,4 integer and 5 decimal *
%FSLAX45Y45*%
%MOMM*%

%ADD11C,0.5000*%
%ADD12C,0.6200*%
%ADD13R,1.3500X1.4100*%
%ADD14R,3.5000X1.6000*%
%ADD16R,1.2000X1.4000*%
%ADD17R,1.1500X0.9500*%
%ADD20R,0.8640X0.8065*%
%ADD22C,1.6000*%
%ADD24C,1.8000*%

%LPD*%
D11*
X2349500Y5093182D02*
G01*
X2349500Y6008446D01*
X2716453Y6375400D01*
X2716453Y6375400D02*
G01*
X2716453Y6539153D01*
X2921000Y6743700D01*
X4430953Y6743700D01*
X4799253Y6375400D01*
X1079500Y3834003D02*
G01*
X1230503Y3683000D01*
X3644900Y3683000D01*
X3764305Y3802405D01*
X3784600Y3802405D01*
X5295900Y4974259D02*
G01*
X5266232Y4944592D01*
X4343400Y4944592D01*
X3213100Y4249394D02*
G01*
X3340100Y4122394D01*
X3784600Y4122394D01*
X3378200Y5093462D02*
G01*
X2603500Y5092192D01*
X2716453Y5867400D02*
G01*
X3339617Y5244236D01*
X3378200Y5244236D01*
X4343400Y5291607D02*
G01*
X3735146Y5899861D01*
X3735146Y6121400D01*
X3784600Y3802405D02*
G01*
X4114800Y4132605D01*
X4114800Y5092700D01*
X4313707Y5291607D01*
X4343400Y5291607D01*
X5169763Y4216400D02*
G01*
X4801463Y4584700D01*
X4571136Y4584700D01*
X5295900Y4560163D02*
G01*
X5320436Y4535627D01*
X5320436Y4216400D01*
X5295900Y4974259D02*
G01*
X5295900Y4710836D01*
X5295900Y5710859D02*
G01*
X5295900Y5312740D01*
X4799253Y5867400D02*
G01*
X4981193Y6049340D01*
X5295900Y6049340D01*
X2095500Y5093207D02*
G01*
X1824101Y4821809D01*
X1824101Y4495800D01*
X2824099Y4495800D02*
G01*
X3070504Y4249394D01*
X3213100Y4249394D01*
X1079500Y4039996D02*
G01*
X1190091Y3929405D01*
X3213100Y3929405D01*
X1071092Y5130800D02*
G01*
X1652346Y5712053D01*
X1652346Y6121400D01*
X1071092Y5130800D02*
G01*
X1079500Y5122392D01*
X1079500Y4039994D01*
G36*
X1147000Y3969499D02*
G01*
X1011999Y3969499D01*
X1011999Y4110499D01*
X1147000Y4110499D01*
G37*
D13*
G01*
X1079500Y3834003D03*
D14*
G01*
X3784600Y3802405D03*
G01*
X3784600Y4122394D03*
G01*
X3213100Y4249394D03*
G01*
X3213100Y3929405D03*
G36*
X1348094Y5190799D02*
G01*
X1488097Y5190799D01*
X1488097Y5070800D01*
X1348094Y5070800D01*
G37*
G36*
X1001102Y5190799D02*
G01*
X1141105Y5190799D01*
X1141105Y5070800D01*
X1001102Y5070800D01*
G37*
D16*
G01*
X4343400Y4944592D03*
G01*
X4343400Y5291607D03*
D17*
G01*
X5295900Y4974259D03*
G01*
X5295900Y5312740D03*
G01*
X5295900Y5710859D03*
G01*
X5295900Y6049340D03*
G36*
X2531463Y5957399D02*
G01*
X2901464Y5957399D01*
X2901464Y5777400D01*
X2531463Y5777400D01*
G37*
G36*
X2531463Y6465399D02*
G01*
X2901464Y6465399D01*
X2901464Y6285400D01*
X2531463Y6285400D01*
G37*
G36*
X1232334Y6651800D02*
G01*
X2072335Y6651800D01*
X2072335Y5590999D01*
X1232334Y5590999D01*
G37*
G36*
X4614263Y5957399D02*
G01*
X4984264Y5957399D01*
X4984264Y5777400D01*
X4614263Y5777400D01*
G37*
G36*
X4614263Y6465399D02*
G01*
X4984264Y6465399D01*
X4984264Y6285400D01*
X4614263Y6285400D01*
G37*
G36*
X3315134Y6651800D02*
G01*
X4155135Y6651800D01*
X4155135Y5590999D01*
X3315134Y5590999D01*
G37*
G36*
X5339100Y4670501D02*
G01*
X5252699Y4670501D01*
X5252699Y4751148D01*
X5339100Y4751148D01*
G37*
D20*
G01*
X5295900Y4560163D03*
G36*
X3334999Y5133898D02*
G01*
X3421400Y5133898D01*
X3421400Y5053251D01*
X3334999Y5053251D01*
G37*
G01*
X3378200Y5244236D03*
G36*
X4460798Y4627900D02*
G01*
X4460798Y4541499D01*
X4380151Y4541499D01*
X4380151Y4627900D01*
G37*
G36*
X4530801Y4627900D02*
G01*
X4530801Y4541499D01*
X4611448Y4541499D01*
X4611448Y4627900D01*
G37*
G36*
X5210098Y4259600D02*
G01*
X5210098Y4173199D01*
X5129451Y4173199D01*
X5129451Y4259600D01*
G37*
G36*
X5280101Y4259600D02*
G01*
X5280101Y4173199D01*
X5360748Y4173199D01*
X5360748Y4259600D01*
G37*
D22*
G01*
X1824101Y4495800D03*
G01*
X2824099Y4495800D03*
G36*
X2005487Y5223195D02*
G01*
X2185487Y5223195D01*
X2185487Y4963195D01*
X2005487Y4963195D01*
G37*
D12*
G01*
X1418107Y5143500D03*
G01*
X3378200Y5093563D03*
G01*
X3378200Y5244236D03*
G01*
X4799253Y5867400D03*
G01*
X1079500Y4039996D03*
G01*
X4343400Y4944592D03*
G01*
X4571136Y4584700D03*
G01*
X4420463Y4584700D03*
G01*
X1071092Y5143500D03*
D24*
X2349500Y5133182D02*
G01*
X2349500Y5053182D01*
X2603525Y5132191D02*
G01*
X2603525Y5052192D01*
M02*
