G04 Layer: TopPasteMaskLayer*
G04 EasyEDA v6.4.32, 2022-06-17 11:56:41*
G04 Gerber Generator version 0.2*
G04 Scale: 100 percent, Rotated: No, Reflected: No *
G04 Dimensions in millimeters *
G04 leading zeros omitted , absolute positions ,4 integer and 5 decimal *
%FSLAX45Y45*%
%MOMM*%

%ADD14R,3.5000X1.6000*%
%ADD16R,1.2000X1.4000*%
%ADD17R,1.1500X0.9500*%

%LPD*%
G36*
X1054506Y3894988D02*
G01*
X1013510Y3894480D01*
X1008481Y3889501D01*
X1008481Y3774490D01*
X1013510Y3769512D01*
X1141476Y3769512D01*
X1146505Y3774490D01*
X1146505Y3889501D01*
X1141476Y3894480D01*
X1099515Y3894023D01*
X1099515Y3849979D01*
X1054506Y3849979D01*
G37*
G36*
X1013510Y4109516D02*
G01*
X1008481Y4104487D01*
X1008481Y3989476D01*
X1013510Y3984498D01*
X1054506Y3985006D01*
X1054506Y4028998D01*
X1099515Y4028998D01*
X1099515Y3984498D01*
X1141476Y3984498D01*
X1146505Y3989476D01*
X1146505Y4104487D01*
X1141476Y4109516D01*
G37*
G36*
X5255920Y4760010D02*
G01*
X5250891Y4754981D01*
X5250891Y4675022D01*
X5255920Y4669993D01*
X5278678Y4669993D01*
X5278678Y4707026D01*
X5311698Y4707026D01*
X5311698Y4669993D01*
X5335879Y4669993D01*
X5340908Y4675022D01*
X5340908Y4754981D01*
X5335879Y4760010D01*
G37*
G36*
X5255920Y4599990D02*
G01*
X5250891Y4595012D01*
X5250891Y4516018D01*
X5255920Y4510989D01*
X5335879Y4510989D01*
X5340908Y4516018D01*
X5340908Y4595012D01*
X5335879Y4599990D01*
X5311698Y4599990D01*
X5311698Y4561992D01*
X5278678Y4561992D01*
X5278678Y4599990D01*
G37*
G36*
X3338220Y5134406D02*
G01*
X3333191Y5129377D01*
X3333191Y5049418D01*
X3338220Y5044389D01*
X3418179Y5044389D01*
X3423208Y5049418D01*
X3423208Y5129377D01*
X3418179Y5134406D01*
X3395421Y5134406D01*
X3395421Y5097373D01*
X3362401Y5097373D01*
X3362401Y5134406D01*
G37*
G36*
X3338220Y5293410D02*
G01*
X3333191Y5288381D01*
X3333191Y5209387D01*
X3338220Y5204409D01*
X3362401Y5204409D01*
X3362401Y5242407D01*
X3395421Y5242407D01*
X3395421Y5204409D01*
X3418179Y5204409D01*
X3423208Y5209387D01*
X3423208Y5288381D01*
X3418179Y5293410D01*
G37*
G36*
X4376318Y4629708D02*
G01*
X4371289Y4624679D01*
X4371289Y4544720D01*
X4376318Y4539691D01*
X4456277Y4539691D01*
X4461306Y4544720D01*
X4461306Y4567478D01*
X4424324Y4567478D01*
X4424324Y4600498D01*
X4461306Y4600498D01*
X4461306Y4624679D01*
X4456277Y4629708D01*
G37*
G36*
X4536287Y4629708D02*
G01*
X4531309Y4624679D01*
X4531309Y4600498D01*
X4569307Y4600498D01*
X4569307Y4567478D01*
X4531309Y4567478D01*
X4531309Y4544720D01*
X4536287Y4539691D01*
X4615281Y4539691D01*
X4620310Y4544720D01*
X4620310Y4624679D01*
X4615281Y4629708D01*
G37*
G36*
X5125618Y4261408D02*
G01*
X5120589Y4256379D01*
X5120589Y4176420D01*
X5125618Y4171391D01*
X5205577Y4171391D01*
X5210606Y4176420D01*
X5210606Y4199178D01*
X5173624Y4199178D01*
X5173624Y4232198D01*
X5210606Y4232198D01*
X5210606Y4256379D01*
X5205577Y4261408D01*
G37*
G36*
X5285587Y4261408D02*
G01*
X5280609Y4256379D01*
X5280609Y4232198D01*
X5318607Y4232198D01*
X5318607Y4199178D01*
X5280609Y4199178D01*
X5280609Y4176420D01*
X5285587Y4171391D01*
X5364581Y4171391D01*
X5369610Y4176420D01*
X5369610Y4256379D01*
X5364581Y4261408D01*
G37*
D14*
G01*
X3784600Y3802405D03*
G01*
X3784600Y4122394D03*
G01*
X3213100Y4249394D03*
G01*
X3213100Y3929405D03*
G36*
X1348094Y5190799D02*
G01*
X1488097Y5190799D01*
X1488097Y5070800D01*
X1348094Y5070800D01*
G37*
G36*
X1001102Y5190799D02*
G01*
X1141105Y5190799D01*
X1141105Y5070800D01*
X1001102Y5070800D01*
G37*
D16*
G01*
X4343400Y4944592D03*
G01*
X4343400Y5291607D03*
D17*
G01*
X5295900Y4974259D03*
G01*
X5295900Y5312740D03*
G01*
X5295900Y5710859D03*
G01*
X5295900Y6049340D03*
G36*
X2531463Y5957399D02*
G01*
X2901464Y5957399D01*
X2901464Y5777400D01*
X2531463Y5777400D01*
G37*
G36*
X2531463Y6465399D02*
G01*
X2901464Y6465399D01*
X2901464Y6285400D01*
X2531463Y6285400D01*
G37*
G36*
X1232334Y6651800D02*
G01*
X2072335Y6651800D01*
X2072335Y5590999D01*
X1232334Y5590999D01*
G37*
G36*
X4614263Y5957399D02*
G01*
X4984264Y5957399D01*
X4984264Y5777400D01*
X4614263Y5777400D01*
G37*
G36*
X4614263Y6465399D02*
G01*
X4984264Y6465399D01*
X4984264Y6285400D01*
X4614263Y6285400D01*
G37*
G36*
X3315134Y6651800D02*
G01*
X4155135Y6651800D01*
X4155135Y5590999D01*
X3315134Y5590999D01*
G37*
M02*
