G04 Layer: TopSilkscreenLayer*
G04 EasyEDA v6.4.32, 2022-06-17 11:56:41*
G04 Gerber Generator version 0.2*
G04 Scale: 100 percent, Rotated: No, Reflected: No *
G04 Dimensions in millimeters *
G04 leading zeros omitted , absolute positions ,4 integer and 5 decimal *
%FSLAX45Y45*%
%MOMM*%

%ADD10C,0.2540*%
%ADD25C,0.1524*%
%ADD26C,0.1500*%
%ADD27C,0.1520*%
%ADD28C,0.4000*%

%LPD*%
D25*
X863092Y4014978D02*
G01*
X852678Y4009644D01*
X842263Y3999229D01*
X837184Y3989070D01*
X837184Y3968242D01*
X842263Y3957828D01*
X852678Y3947413D01*
X863092Y3942079D01*
X878839Y3937000D01*
X904747Y3937000D01*
X920242Y3942079D01*
X930655Y3947413D01*
X941070Y3957828D01*
X946150Y3968242D01*
X946150Y3989070D01*
X941070Y3999229D01*
X930655Y4009644D01*
X920242Y4014978D01*
X858012Y4049268D02*
G01*
X852678Y4059681D01*
X837184Y4075176D01*
X946150Y4075176D01*
X4128008Y3897121D02*
G01*
X4138422Y3902455D01*
X4148836Y3912870D01*
X4153915Y3923029D01*
X4153915Y3943857D01*
X4148836Y3954271D01*
X4138422Y3964686D01*
X4128008Y3970020D01*
X4112259Y3975100D01*
X4086352Y3975100D01*
X4070858Y3970020D01*
X4060443Y3964686D01*
X4050029Y3954271D01*
X4044950Y3943857D01*
X4044950Y3923029D01*
X4050029Y3912870D01*
X4060443Y3902455D01*
X4070858Y3897121D01*
X4153915Y3831589D02*
G01*
X4148836Y3842004D01*
X4138422Y3852418D01*
X4128008Y3857752D01*
X4112259Y3862831D01*
X4086352Y3862831D01*
X4070858Y3857752D01*
X4060443Y3852418D01*
X4050029Y3842004D01*
X4044950Y3831589D01*
X4044950Y3811015D01*
X4050029Y3800602D01*
X4060443Y3790187D01*
X4070858Y3784854D01*
X4086352Y3779773D01*
X4112259Y3779773D01*
X4128008Y3784854D01*
X4138422Y3790187D01*
X4148836Y3800602D01*
X4153915Y3811015D01*
X4153915Y3831589D01*
X4153915Y3745484D02*
G01*
X4044950Y3745484D01*
X4153915Y3711194D02*
G01*
X4044950Y3711194D01*
X4044950Y3711194D02*
G01*
X4044950Y3648710D01*
X2843784Y4076700D02*
G01*
X2952750Y4076700D01*
X2952750Y4076700D02*
G01*
X2952750Y4138929D01*
X2864611Y4173220D02*
G01*
X2859277Y4183634D01*
X2843784Y4199381D01*
X2952750Y4199381D01*
X1244600Y5373115D02*
G01*
X1244600Y5264150D01*
X1244600Y5373115D02*
G01*
X1280921Y5373115D01*
X1296670Y5368036D01*
X1306829Y5357621D01*
X1312163Y5347207D01*
X1317244Y5331460D01*
X1317244Y5305552D01*
X1312163Y5290057D01*
X1306829Y5279644D01*
X1296670Y5269229D01*
X1280921Y5264150D01*
X1244600Y5264150D01*
X1351534Y5352287D02*
G01*
X1361947Y5357621D01*
X1377695Y5373115D01*
X1377695Y5264150D01*
X4585715Y5118100D02*
G01*
X4476750Y5118100D01*
X4585715Y5118100D02*
G01*
X4585715Y5081778D01*
X4580636Y5066029D01*
X4570222Y5055870D01*
X4559808Y5050536D01*
X4544059Y5045455D01*
X4518152Y5045455D01*
X4502658Y5050536D01*
X4492243Y5055870D01*
X4481829Y5066029D01*
X4476750Y5081778D01*
X4476750Y5118100D01*
X4559808Y5005831D02*
G01*
X4564888Y5005831D01*
X4575302Y5000752D01*
X4580636Y4995418D01*
X4585715Y4985004D01*
X4585715Y4964429D01*
X4580636Y4954015D01*
X4575302Y4948681D01*
X4564888Y4943602D01*
X4554474Y4943602D01*
X4544059Y4948681D01*
X4528565Y4959095D01*
X4476750Y5011165D01*
X4476750Y4938268D01*
X5538215Y5143500D02*
G01*
X5429250Y5143500D01*
X5538215Y5143500D02*
G01*
X5538215Y5107178D01*
X5533136Y5091429D01*
X5522722Y5081270D01*
X5512308Y5075936D01*
X5496559Y5070855D01*
X5470652Y5070855D01*
X5455158Y5075936D01*
X5444743Y5081270D01*
X5434329Y5091429D01*
X5429250Y5107178D01*
X5429250Y5143500D01*
X5538215Y5026152D02*
G01*
X5538215Y4969002D01*
X5496559Y4999989D01*
X5496559Y4984495D01*
X5491479Y4974081D01*
X5486400Y4969002D01*
X5470652Y4963668D01*
X5460238Y4963668D01*
X5444743Y4969002D01*
X5434329Y4979415D01*
X5429250Y4994910D01*
X5429250Y5010404D01*
X5434329Y5026152D01*
X5439409Y5031231D01*
X5449824Y5036565D01*
X5538215Y5880100D02*
G01*
X5429250Y5880100D01*
X5538215Y5880100D02*
G01*
X5538215Y5843778D01*
X5533136Y5828029D01*
X5522722Y5817870D01*
X5512308Y5812536D01*
X5496559Y5807455D01*
X5470652Y5807455D01*
X5455158Y5812536D01*
X5444743Y5817870D01*
X5434329Y5828029D01*
X5429250Y5843778D01*
X5429250Y5880100D01*
X5538215Y5721095D02*
G01*
X5465572Y5773165D01*
X5465572Y5695187D01*
X5538215Y5721095D02*
G01*
X5429250Y5721095D01*
X2311400Y4865115D02*
G01*
X2311400Y4756150D01*
X2311400Y4756150D02*
G01*
X2373629Y4756150D01*
X2418334Y4865115D02*
G01*
X2475484Y4865115D01*
X2444495Y4823460D01*
X2459990Y4823460D01*
X2470404Y4818379D01*
X2475484Y4813300D01*
X2480818Y4797552D01*
X2480818Y4787137D01*
X2475484Y4771644D01*
X2465070Y4761229D01*
X2449575Y4756150D01*
X2434081Y4756150D01*
X2418334Y4761229D01*
X2413254Y4766310D01*
X2407920Y4776723D01*
X2104974Y6795515D02*
G01*
X2094560Y6790436D01*
X2084146Y6780021D01*
X2078812Y6769608D01*
X2073732Y6753860D01*
X2073732Y6727952D01*
X2078812Y6712458D01*
X2084146Y6702044D01*
X2094560Y6691629D01*
X2104974Y6686550D01*
X2125802Y6686550D01*
X2135962Y6691629D01*
X2146376Y6702044D01*
X2151710Y6712458D01*
X2156790Y6727952D01*
X2156790Y6753860D01*
X2151710Y6769608D01*
X2146376Y6780021D01*
X2135962Y6790436D01*
X2125802Y6795515D01*
X2104974Y6795515D01*
X2120468Y6707123D02*
G01*
X2151710Y6676136D01*
X2191080Y6774687D02*
G01*
X2201494Y6780021D01*
X2217242Y6795515D01*
X2217242Y6686550D01*
X4187774Y6795515D02*
G01*
X4177360Y6790436D01*
X4166946Y6780021D01*
X4161612Y6769608D01*
X4156532Y6753860D01*
X4156532Y6727952D01*
X4161612Y6712458D01*
X4166946Y6702044D01*
X4177360Y6691629D01*
X4187774Y6686550D01*
X4208602Y6686550D01*
X4218762Y6691629D01*
X4229176Y6702044D01*
X4234510Y6712458D01*
X4239590Y6727952D01*
X4239590Y6753860D01*
X4234510Y6769608D01*
X4229176Y6780021D01*
X4218762Y6790436D01*
X4208602Y6795515D01*
X4187774Y6795515D01*
X4203268Y6707123D02*
G01*
X4234510Y6676136D01*
X4279214Y6769608D02*
G01*
X4279214Y6774687D01*
X4284294Y6785102D01*
X4289628Y6790436D01*
X4300042Y6795515D01*
X4320616Y6795515D01*
X4331030Y6790436D01*
X4336364Y6785102D01*
X4341444Y6774687D01*
X4341444Y6764273D01*
X4336364Y6753860D01*
X4325950Y6738365D01*
X4273880Y6686550D01*
X4346778Y6686550D01*
X5078984Y4635500D02*
G01*
X5187950Y4635500D01*
X5078984Y4635500D02*
G01*
X5078984Y4682236D01*
X5084063Y4697729D01*
X5089397Y4703063D01*
X5099811Y4708144D01*
X5110225Y4708144D01*
X5120640Y4703063D01*
X5125720Y4697729D01*
X5130800Y4682236D01*
X5130800Y4635500D01*
X5130800Y4671821D02*
G01*
X5187950Y4708144D01*
X5099811Y4742434D02*
G01*
X5094477Y4752847D01*
X5078984Y4768595D01*
X5187950Y4768595D01*
X3595115Y5168900D02*
G01*
X3486150Y5168900D01*
X3595115Y5168900D02*
G01*
X3595115Y5122163D01*
X3590036Y5106670D01*
X3584702Y5101336D01*
X3574288Y5096255D01*
X3563874Y5096255D01*
X3553459Y5101336D01*
X3548379Y5106670D01*
X3543300Y5122163D01*
X3543300Y5168900D01*
X3543300Y5132578D02*
G01*
X3486150Y5096255D01*
X3569208Y5056631D02*
G01*
X3574288Y5056631D01*
X3584702Y5051552D01*
X3590036Y5046218D01*
X3595115Y5035804D01*
X3595115Y5015229D01*
X3590036Y5004815D01*
X3584702Y4999481D01*
X3574288Y4994402D01*
X3563874Y4994402D01*
X3553459Y4999481D01*
X3537965Y5009895D01*
X3486150Y5061965D01*
X3486150Y4989068D01*
X4495800Y4367784D02*
G01*
X4495800Y4476750D01*
X4495800Y4367784D02*
G01*
X4449063Y4367784D01*
X4433570Y4372863D01*
X4428236Y4378197D01*
X4423156Y4388612D01*
X4423156Y4399026D01*
X4428236Y4409439D01*
X4433570Y4414520D01*
X4449063Y4419600D01*
X4495800Y4419600D01*
X4459477Y4419600D02*
G01*
X4423156Y4476750D01*
X4378452Y4367784D02*
G01*
X4321302Y4367784D01*
X4352290Y4409439D01*
X4336795Y4409439D01*
X4326381Y4414520D01*
X4321302Y4419600D01*
X4315968Y4435347D01*
X4315968Y4445762D01*
X4321302Y4461255D01*
X4331715Y4471670D01*
X4347209Y4476750D01*
X4362704Y4476750D01*
X4378452Y4471670D01*
X4383531Y4466589D01*
X4388865Y4456176D01*
X5245100Y3999484D02*
G01*
X5245100Y4108450D01*
X5245100Y3999484D02*
G01*
X5198363Y3999484D01*
X5182870Y4004563D01*
X5177536Y4009897D01*
X5172456Y4020312D01*
X5172456Y4030726D01*
X5177536Y4041139D01*
X5182870Y4046220D01*
X5198363Y4051300D01*
X5245100Y4051300D01*
X5208777Y4051300D02*
G01*
X5172456Y4108450D01*
X5086095Y3999484D02*
G01*
X5138165Y4072128D01*
X5060188Y4072128D01*
X5086095Y3999484D02*
G01*
X5086095Y4108450D01*
X2336787Y5589511D02*
G01*
X2336787Y5511533D01*
X2341867Y5496039D01*
X2352281Y5485625D01*
X2368029Y5480545D01*
X2378443Y5480545D01*
X2393937Y5485625D01*
X2404351Y5496039D01*
X2409431Y5511533D01*
X2409431Y5589511D01*
X2443721Y5568683D02*
G01*
X2454135Y5574017D01*
X2469883Y5589511D01*
X2469883Y5480545D01*
G36*
X1084122Y5231028D02*
G01*
X1084122Y5199024D01*
X1114602Y5199024D01*
X1114602Y5231028D01*
G37*
G36*
X1084122Y5062575D02*
G01*
X1084122Y5030571D01*
X1114602Y5030571D01*
X1114602Y5062575D01*
G37*
G36*
X4411624Y5278577D02*
G01*
X4411624Y5248097D01*
X4443628Y5248097D01*
X4443628Y5278577D01*
G37*
G36*
X4243171Y5278577D02*
G01*
X4243171Y5248097D01*
X4275175Y5248097D01*
X4275175Y5278577D01*
G37*
G36*
X5360619Y5306974D02*
G01*
X5360619Y5276494D01*
X5390134Y5276494D01*
X5390134Y5306974D01*
G37*
G36*
X5201666Y5306974D02*
G01*
X5201666Y5276494D01*
X5231180Y5276494D01*
X5231180Y5306974D01*
G37*
G36*
X5360619Y6043574D02*
G01*
X5360619Y6013094D01*
X5390134Y6013094D01*
X5390134Y6043574D01*
G37*
G36*
X5201666Y6043574D02*
G01*
X5201666Y6013094D01*
X5231180Y6013094D01*
X5231180Y6043574D01*
G37*
X989139Y4118119D02*
G01*
X989139Y3977119D01*
X1169860Y3977119D02*
G01*
X1169860Y4118119D01*
X1154620Y4133359D02*
G01*
X1004379Y4133359D01*
X989139Y3755880D02*
G01*
X989139Y3896880D01*
X1169860Y3896880D02*
G01*
X1169860Y3755880D01*
X1154620Y3740640D02*
G01*
X1004379Y3740640D01*
D26*
X3595601Y4169399D02*
G01*
X3574981Y4169399D01*
X3574981Y3754155D01*
X3594600Y3754399D01*
X3974599Y3755400D02*
G01*
X3994150Y3755389D01*
X3994150Y4170679D01*
X3972600Y4170400D01*
X3402098Y3882400D02*
G01*
X3422718Y3882400D01*
X3422718Y4297644D01*
X3403099Y4297400D01*
X3023100Y4296399D02*
G01*
X3003550Y4296410D01*
X3003550Y3881120D01*
X3025099Y3881399D01*
D25*
X1106977Y5038176D02*
G01*
X1382222Y5038176D01*
X1106977Y5223423D02*
G01*
X1382222Y5223423D01*
X1382222Y5223423D02*
G01*
X1382222Y5204119D01*
X1382222Y5038176D02*
G01*
X1382222Y5057480D01*
X1152921Y5218422D02*
G01*
X1152921Y5043177D01*
X4250776Y5255722D02*
G01*
X4250776Y4980477D01*
X4436023Y5255722D02*
G01*
X4436023Y4980477D01*
X4436023Y4980477D02*
G01*
X4416719Y4980477D01*
X4250776Y4980477D02*
G01*
X4270080Y4980477D01*
X4431022Y5209778D02*
G01*
X4255777Y5209778D01*
X5382519Y5284116D02*
G01*
X5382519Y5002883D01*
X5382519Y5002883D02*
G01*
X5365719Y5002883D01*
X5209280Y5284116D02*
G01*
X5209280Y5002883D01*
X5209280Y5002883D02*
G01*
X5226080Y5002883D01*
X5382519Y5248429D02*
G01*
X5209280Y5248429D01*
X5382519Y6020716D02*
G01*
X5382519Y5739483D01*
X5382519Y5739483D02*
G01*
X5365719Y5739483D01*
X5209280Y6020716D02*
G01*
X5209280Y5739483D01*
X5209280Y5739483D02*
G01*
X5226080Y5739483D01*
X5382519Y5985029D02*
G01*
X5209280Y5985029D01*
D10*
X2024100Y4695799D02*
G01*
X2624099Y4695799D01*
X2624099Y4695799D02*
G01*
X2624099Y4295800D01*
X2624099Y4295800D02*
G01*
X2024100Y4295800D01*
X2024100Y4295800D02*
G01*
X2024100Y4695799D01*
D27*
X2374894Y5913130D02*
G01*
X2496398Y5913130D01*
X2496398Y5821398D01*
X2374894Y5821398D01*
X2374894Y6421130D02*
G01*
X2496398Y6421130D01*
X2496398Y6329400D01*
X2374894Y6329400D01*
D25*
X2374894Y5603781D02*
G01*
X2374894Y6639018D01*
X2109015Y5603781D02*
G01*
X2374894Y5603781D01*
X2109015Y6639018D02*
G01*
X2374894Y6639018D01*
D27*
X4457694Y5913130D02*
G01*
X4579198Y5913130D01*
X4579198Y5821398D01*
X4457694Y5821398D01*
X4457694Y6421130D02*
G01*
X4579198Y6421130D01*
X4579198Y6329400D01*
X4457694Y6329400D01*
D25*
X4457694Y5603781D02*
G01*
X4457694Y6639018D01*
X4191815Y5603781D02*
G01*
X4457694Y5603781D01*
X4191815Y6639018D02*
G01*
X4457694Y6639018D01*
X5361960Y4678121D02*
G01*
X5361960Y4774008D01*
X5229839Y4774008D01*
X5229839Y4678121D01*
X5361960Y4592878D02*
G01*
X5361960Y4496991D01*
X5229839Y4496991D01*
X5229839Y4592878D01*
X3312139Y5126278D02*
G01*
X3312139Y5030391D01*
X3444260Y5030391D01*
X3444260Y5126278D01*
X3312139Y5211521D02*
G01*
X3312139Y5307408D01*
X3444260Y5307408D01*
X3444260Y5211521D01*
X4453178Y4650760D02*
G01*
X4357291Y4650760D01*
X4357291Y4518639D01*
X4453178Y4518639D01*
X4538421Y4650760D02*
G01*
X4634308Y4650760D01*
X4634308Y4518639D01*
X4538421Y4518639D01*
X5202478Y4282460D02*
G01*
X5106591Y4282460D01*
X5106591Y4150339D01*
X5202478Y4150339D01*
X5287721Y4282460D02*
G01*
X5383608Y4282460D01*
X5383608Y4150339D01*
X5287721Y4150339D01*
D10*
X1819386Y5402102D02*
G01*
X2879587Y5402102D01*
X2879587Y4922293D01*
X1819386Y4922293D01*
X1819386Y5401594D01*
X1819386Y5402102D01*
X2879483Y5342186D02*
G01*
X1819490Y5342186D01*
D25*
G75*
G01*
X1169860Y4118120D02*
G03*
X1154620Y4133360I-15240J0D01*
G75*
G01*
X1004380Y4133360D02*
G03*
X989140Y4118120I0J-15240D01*
G75*
G01*
X1169860Y3755880D02*
G02*
X1154620Y3740640I-15240J0D01*
G75*
G01*
X1004380Y3740640D02*
G02*
X989140Y3755880I0J15240D01*
D28*
G75*
G01*
X2072490Y4859696D02*
G03*
X2072744Y4859696I127J-20000D01*
M02*
